<svg xmlns="http://www.w3.org/2000/svg" viewBox="0 0 501.4 552.1"><path fill="#53BE94" d="M200.2 529.2c-11 10.2-25.8 16.5-42.1 16.5-34.2 0-61.9-27.7-61.9-61.9 0-5.8.8-11.4 2.3-16.7"/><path fill="#010201" d="M196.6 525.6c-19.2 17.3-47.9 19.9-69.7 5.8-20.8-13.5-29.9-39.2-23.7-63 1.6-6.2-8-8.9-9.6-2.7-7.4 28.3 3.7 58.3 28.3 74.3 25.6 16.6 59.4 12.9 81.8-7.3 4.8-4.3-2.3-11.4-7.1-7.1z"/><path fill="#53BE94" d="M302.2 529.2c11 10.2 25.8 16.5 42.1 16.5 34.2 0 61.9-27.7 61.9-61.9 0-5.8-.8-11.4-2.3-16.7"/><path fill="#010201" d="M298.6 532.7c22.4 20.2 56.2 23.9 81.8 7.3 24.6-16 35.7-46 28.3-74.3-1.6-6.2-11.3-3.6-9.6 2.7 6.3 23.8-2.8 49.5-23.7 63-21.7 14.1-50.5 11.6-69.7-5.8-4.8-4.3-11.9 2.8-7.1 7.1z"/><linearGradient id="a" gradientUnits="userSpaceOnUse" x1="80.398" y1="108.459" x2="421.437" y2="449.498"><stop offset="0" stop-color="#429C7A"/><stop offset="1" stop-color="#53BE94"/></linearGradient><path fill="url(#a)" d="M483.8 257.9c-19.4-47.5-50.4-71.9-50.6-75.3-3.5-52.2-40.6-110.5-81.1-140.9C324.7 18.8 289.5 5 251 5c-37.6 0-72.1 13.1-99.2 35.1-41.3 29.9-79.7 89.4-83.3 142.5-.2 3.3-31.2 27.7-50.6 75.3-25.5 62.6-15 129 50.2 163.9 33.2 67.4 102.6 113.8 182.8 113.8 80.3 0 149.7-46.4 182.9-113.9 65-35 75.5-101.3 50-163.8z"/><path fill="#1B1D0F" d="M488.6 256.5c-10.9-26.4-26.8-49.5-46.1-70.5l-3-3.3-1.2-1.4c-.9-1.1 0 .5-.4-.5-.4-1.1.3 1.1.2.3l-.5-5.1c-.5-4.2-1.1-8.3-2-12.5-3.4-16.9-9.6-33.2-17.4-48.6C387.5 54.1 328.8 3.5 258.6.2c-40-1.9-79.1 11.4-110.3 36.4 2.8 1.6 5.6 3.2 8.4 4.9.8-3.8-3.6-8.4-7.3-5.6-28 20.2-50.4 48.4-65.9 79.1-7.9 15.6-14.1 32.1-17.5 49.3-.8 3.9-1.4 7.8-1.8 11.7-.2 1.7-.2 3.5-.5 5.3l.1-.2c.3-.6-.7.8-1.4 1.7-1.2 1.4-2.5 2.7-3.8 4.1-39.3 42.4-69 102.5-55.2 161.5 8 34.3 31.7 61.1 62.2 77.7 2.7 1.5 6.6.3 7.3-3l-9.1 1.2c19.3 38.9 50.7 71.4 89.1 91.8 39.5 21 85.1 28.6 129.3 22.1 43-6.3 83.5-26.7 114.6-57.1 15.5-15.1 28.7-32.7 38.8-51.9 1.1-2.1 1.7-3.4 3.5-4.8 2.4-1.8 5.3-3.1 7.9-4.8 4.6-3 9.1-6.4 13.3-9.9 7.8-6.6 14.7-14.1 20.6-22.4 27.3-38.5 24.7-88.7 7.7-130.8-2.4-5.9-12.1-3.3-9.6 2.7 14.3 35.6 18.9 77.2.1 112.1-9.6 17.9-24.4 32.2-41.7 42.6-2.2 1.3-5.3 2.4-7.1 4.3-1.6 1.6-2.3 4.1-3.4 6.1-2.4 4.6-5 9.1-7.8 13.5-5.6 8.8-11.8 17.2-18.7 25-27.5 31.3-64.4 53.5-105 62.8-41.4 9.5-85.9 5.4-124.7-11.8-42.7-19-77.5-52.7-98.3-94.5-1.9-3.8-8.2-2.9-9.1 1.2l7.3-3c-26.1-14.2-47.1-36.1-55.8-64.9-8.2-27.3-5.1-56.6 4.1-83.3 9.4-27.5 25.3-52.1 44.8-73.4 4.1-4.5 9.3-8.4 9.8-14.7 1.5-16.4 5.9-32.5 12.3-47.7 14.4-34.4 38.2-67 68.4-89.1-2.4-1.9-4.9-3.8-7.3-5.6-1.1 5.1 4.5 7.9 8.4 4.9C209.7.1 289-.9 344.2 41.7c26 20 47.3 44.4 62.8 73.3 7.9 14.7 14.2 30.4 18 46.7.8 3.4 1.5 6.9 2 10.4.6 3.8.4 8.1 1.3 11.8.6 2.2 2.2 3.9 3.7 5.5 6.6 7.6 13.6 14.8 19.7 22.8 11 14.4 20.3 30.2 27.2 47 2.5 5.9 12.2 3.3 9.7-2.7z"/><path fill="#010201" d="M438.2 424.2C461.5 376.3 466 321 450.3 270c-1.9-6.1-11.5-3.5-9.6 2.7 14.8 48.4 11 101-11.1 146.5-2.8 5.7 5.8 10.8 8.6 5zM51.9 269.1c-15.9 51.3-11.6 107 12 155.2 2.8 5.8 11.4.7 8.6-5-22.3-45.8-26.1-98.9-10.9-147.5 1.8-6.2-7.8-8.8-9.7-2.7z" opacity=".79"/></svg>